<?xml version="1.0" encoding="UTF-8"?>
<svg version="1.1" viewBox="0 0 1960 2048" width="156" height="163" xmlns="http://www.w3.org/2000/svg">
<path transform="translate(357,1468)" d="m0 0h1279l36 1 4 4v304l-3 2-8 1h-1384l-3-3-2-10-1-27v-236l1-31 2-4zm41 116-14 3-8 5-4 5-4 13-1 7v14l3 15 6 12 8 7 5 2h17l8-4 7-9 2-7v-14l-1-4-3 1-5 15-4 6-6 4-3 1h-7l-7-3-3-1-2-4-4-11v-22l3-10 8-9 6-2h23l-1-5-4-4-3-1zm615 0-12 3-8 5-6 12-3 11v16l3 13 5 10 7 8 10 5 3 1h12l6-4 1-4-1-1-13-1-10-5-7-8-3-8-1-6v-14l2-9 6-10 7-3 16-2 3-2-1-5-4-2zm-523 1-8 4-4 10-9 25-6 25-1 13 8-1 4-6 3-8 3-1h25l2 6 4 6 6 5h4l-4-18-6-22-6-16-4-13-3-8-2-1zm76-1-5 2v63l1 10 3 4 8 1 4-3-4-21-2-27h2l2 5 6 10 6 8 2 4 3 12 2 2 5-1 9-8 8-16 3-8 6-9h1l1 14v14l-1 19 1 4 2 1h9l1-1v-45l-1-30-2-3h-7l-6 4-4 6-4 11-7 12-8 11-7 6-7-21-9-25-3-4zm520 1-7 2-3 3-3 11-1 6v21l1 30 3 4h5l2-6 1-8v-15l16 8 5 6 4 14 5 3h6l-1-8-5-16v-8l7-6 4-10v-12l-3-8-6-7-7-3-7-1zm87 0-2 1-2 9-2 28v12l2 19 3 10 4 3 4 1h25l7-3 3-4v-5l-22 1-8-2-3-6-1-6v-9l1-3h21l6-2 1-2v-8l-9 2h-16l-3-5v-17l3-5h23l4 1 1-5-1-4-5-1zm124 0-4 2-4 21-6 18-4 14-1 3-6 2-2-3-6-40-3-10-2-3-3-1h-8l5 26 5 22 11 26 4 3 8-1 4-4 5-15 5-26 4-9v-2l3 3 6 15 4 18 1 14 3 7 2 1h8l5-4 10-41 5-28v-5l-1-1h-7l-3 3-5 37-4 17-5-5-9-24-7-27-2-3zm136 0 1 5 5 3 18 2 1 1v67h9v-50l1-13 2-4 5-2 9-2 1-1v-5l-13-1zm-752 1-2 4v74h9l1-1v-23l-2-54zm57 0 1 70 1 7h8l1-1-1-44 1-7 7 8 12 18 7 12 5 12 3 3h11l1-1v-38l-1-36h-7l-1 1v29l1 23-10-13-10-14-13-22-5-7zm133-1-15 2-8 5-4 5-3 9-1 6v24l4 14 6 10 7 6 6 2h14l9-4 3-3 3-10v-8l-3-13h-4l-2 5-2 16-5 6-5 2-6-1-7-5-5-10-2-10v-25l4-8 7-5 5-1 22-1v-6l-1-1-8-1zm650 1 2 13 10 35 10 29 5 3h7l4-4 11-31 10-35 1-8-2-2h-5l-3 7-6 20-8 27-4 7-5-5-4-9-9-30-5-12-4-5z" fill="#6A0F8C"/>
<path transform="translate(951,244)" d="m0 0h44l36 1v39l-1 37 270 1 43 1 1 1v50l-1 25h24l50 1 5 2v391l-2 1-33 1h-33l-9-1-2-6-1-55v-253l-54 1h-17l-4-2-1-7v-72h-547l-3 1-1 78-1 1h-62l-13-1-1 316-2 1h-25l-49-1-3-1-1-6-1-31v-324l1-33 2-1h74l1-2 1-20 1-53 1-2h311v-76z" fill="#6A0F8C"/>
<path transform="translate(179,511)" d="m0 0h302l43 1 3 3v9l-4 2h-370l-29 1-7 2-3 1-2 5-3 10-1 8-1 607v767l1 27 2 14 1 4 15 3 9 1 29 1h167l197-1h930l219 1h171l11-2 9-5 3-8 1-20v-1358l-1-34-3-14-4-6-7-2-25-1h-323l-50-1-3-3v-11l1-1h370l29 1 12 2 7 4 7 8 5 12 2 7 1 8 1 24v1326l-1 41-2 18-4 11-7 9-8 7-7 3-6 1-22 1-142 1h-1531l-26-1-19-3-10-5-7-7-5-10-2-10-2-26-1-107v-1252l1-27 2-9 6-11 7-7 8-5 7-2 9-1z" fill="#6B128D"/>
<path transform="translate(848,458)" d="m0 0h15l15 2 16 5 11 7 10 9 17 17 7 3h107l5-3 16-17 12-10 15-8 12-3 7-1h23l23 3 16 5 15 8 7 7 7 11 8 24 5 26 7 45 3 29 2 36v32l-2 20-4 13-7 12-8 7-8 2h-14l-17-2-14-4-17-9-17-12-15-13-11-11-11-14-13-18-5-3h-143l-11 2-7 10-10 13-12 14-12 12-17 13-14 9-12 6-21 6-7 1h-21l-7-3-5-5-6-10-5-11-4-17-1-8v-28l3-39 4-26 7-43 4-27 5-19 8-16 6-7 10-7 16-8 13-4zm-3 61-11 4-8 6-8 9-4 9v10l2 10 4 8 10 9 11 4h17l8-4 5-4 6-8 3-7 1-10-3-14-4-8-4-5-11-7-8-2zm284 1-12 5-9 8-6 10-2 8 1 11 4 11 7 8 11 6 16 2 8-2 9-6 8-9 3-7 1-11-3-14-6-9-8-7-11-4z" fill="#6A0F8C"/>
<path transform="translate(1069,795)" d="m0 0h221l52 1 2 1-1 72-1 2-4 1h-71v24l-1 52-2 2-22 1h-54l-1-1-1-10v-67h-178l-214-1-1 76-2 2-15 1h-58l-2-3-1-5-1-70h-72l-2-1-1-3-2-43v-30z" fill="#6A0F8C"/>
<path transform="translate(506,1121)" d="m0 0h39l65 1 1 1v45l-1 1-56 1-150 1-5 1-1 20v144l136 1h29v-16l1-44h-89l-37-1-1-1v-45l19-1h34l103 1 10 3 8 7 2 6 1 24v84l-2 15-5 9-8 4-6 1h-174l-20-1-11-2-9-5-10-9-8-9-6-10-4-10-2-21v-124l2-18 4-13 8-14 9-10 8-7 11-5 11-2 20-1z" fill="#6A108C"/>
<path transform="translate(776,1121)" d="m0 0h149l12 1 1 2v25l-1 20-41 1-142 1-5 1-1 9-1 24v115l1 16 187 1 3 2v43l-4 2h-131l-48-1-15-2-14-7-14-14-8-14-3-12-2-20v-97l1-32 2-16 3-10 7-12 9-10 8-7 10-5 6-2 8-1z" fill="#6A108C"/>
<path transform="translate(1414,1122)" d="m0 0h49l5 3 8 16 16 34 12 24 11 23 23 47 11 24 5 10 4 4 9-16 9-17 8-16 8-17 21-42 13-28 16-33 6-12 4-4h51l-1 5-12 24-13 28-22 45-17 35-49 98-11 19-8 9-9 5-6-1-9-6-9-9-10-17-8-16-12-23-8-17-20-40-11-23-12-25-14-29-13-28-11-21-5-10z" fill="#6A108C"/>
<path transform="translate(1106,1121)" d="m0 0h253l5 2 1 4v41l-2 1-103 2-2 212-7 1h-31l-9-1-1-11v-201h-28l-71-1-6-2-1-8v-25l1-11z" fill="#6A108C"/>
<path transform="translate(467,1980)" d="m0 0h202l17 1 311-1h171l170 1 5 3v1h-98l1 2h25l92 1 4 1 4-1h16l6 2 1-2 7 2 6-1 4 1 4-1 5 2v-1h5v2l5-2 7 2v-2h3v2l14-1 19 1 61 1v1l-401 1-707-1v-1l9-1 22-1 2-2h35l57-1h9l2-1-3-1h-14l-23-1-17-1h-14l-23-2z" fill="#8248A1"/>
<path transform="translate(1890,577)" d="m0 0h1v1326l-1 10h-1l-1-51-2-12-1-1-1-50v-524l-1-17v-27l1-21v-55l-1-41v-213l1-311 4 2z" fill="#834CA2"/>
<path transform="translate(794,85)" d="m0 0h20l52 1 6 2v74l-1 4h-75l-3-3-1-8v-41l1-28z" fill="#6A108C"/>
<path transform="translate(1108,85)" d="m0 0 58 1 19 1 2 2v74l-3 2h-75l-3-4v-75z" fill="#6A108C"/>
<path transform="translate(1029,166)" d="m0 0 61 1h17l2 1v19l-1 55-2 1-24 1h-45l-9-1-1-1v-32l1-43z" fill="#6A108C"/>
<path transform="translate(873,167)" d="m0 0h77l1 1v72l-1 3h-76l-1-1-1-18v-55z" fill="#6A108C"/>
<path transform="translate(106,601)" d="m0 0h1v559l-1 300h-1l-1-235-3-1-1-25-1-3 1-2v-8l-1-4-1-68-1-63v-32l-1-21v-12l-1-17v-20l-1-51v-100l1-13v-14l1-21 1-16 1-30 1-21h4l1 15v14l1-15z" fill="#834CA2"/>
<path transform="translate(1025,1340)" d="m0 0h14l11 2 5 4 1 2v14l-2 13-4 5-14 2-13-1-8-3-4-6v-20l3-7 5-4z" fill="#6B118C"/>
<path transform="translate(1091,1594)" d="m0 0h9l9 2 6 4 2 4v9l-4 7-8 6-8 3-9-1-5-5-1-3v-15l4-8z" fill="#6B128D"/>
<path transform="translate(490,1603)" d="m0 0h2l5 12 4 13-1 5-8 3h-10l-3-7 4-13z" fill="#6C158E"/>
</svg>
